<svg width="40" height="40" viewBox="0 0 40 40" fill="none" xmlns="http://www.w3.org/2000/svg">
  <rect width="40" height="40" rx="8" fill="#F7DF1E"/>
  <path d="M11 30.5L14 28.7C14.6 29.7 15.1 30.5 16.3 30.5C17.5 30.5 18.2 30 18.2 28V16H21.9V28.1C21.9 32 19.6 33.8 16.3 33.8C13.3 33.8 11.6 32.3 11 30.5Z" fill="#101010"/>
  <path d="M23.8 30.1L26.8 28.4C27.6 29.7 28.7 30.6 30.3 30.6C31.8 30.6 32.7 29.9 32.7 28.9C32.7 27.7 31.8 27.3 30.1 26.6L29.2 26.2C26.6 25.1 24.9 23.8 24.9 20.9C24.9 18.3 26.9 16.2 30 16.2C32.2 16.2 33.8 17 35 19L32.1 20.8C31.6 19.8 31 19.4 30 19.4C29 19.4 28.4 20 28.4 20.8C28.4 21.8 29 22.2 30.4 22.8L31.3 23.2C34.4 24.5 36.1 25.8 36.1 28.8C36.1 32 33.6 33.8 30.3 33.8C27 33.8 24.9 32.3 23.8 30.1Z" fill="#101010"/>
</svg>
